<svg width="70" height="38" viewBox="0 0 70 38" fill="none" xmlns="http://www.w3.org/2000/svg">
<path d="M7.80094 10.042L4.94332 15.7714L1.96209 11.2316L0 11.631L0.020124 20.5123L2.23664 20.0608L2.21939 15.3632L4.50203 18.7236L5.55567 18.5094L7.64569 14.275L7.67444 18.9537L9.89096 18.5022L9.84784 9.62519L7.80094 10.042Z" fill="#FC430B"/>
<path d="M13.3322 15.8452L13.3307 14.2214L17.0997 13.453L17.091 11.589L13.3293 12.356L13.3279 10.8698L17.5913 10.0015L17.5898 8.04776L10.9518 9.39943L10.9719 18.2822L17.7796 16.8944L17.7767 14.9407L13.3322 15.8452Z" fill="#FC430B"/>
<path d="M27.1732 12.9522V6.06078L20.3325 7.45442L20.2405 10.1259C20.2298 10.6944 20.19 11.262 20.1212 11.8264C20.0657 12.3014 19.9749 12.7716 19.8495 13.233C19.7583 13.5893 19.604 13.9262 19.3938 14.2272C19.2266 14.4673 18.9719 14.6312 18.6852 14.6831L18.527 14.7149V18.5123L20.7306 18.0622L20.722 16.2619L26.1368 15.1592L26.1454 16.9595L28.349 16.5109V12.7164L27.1732 12.9522ZM21.8145 13.8205C21.9407 13.4933 22.0332 13.1538 22.0904 12.8075C22.1594 12.4216 22.2141 12.0024 22.2543 11.5499C22.2946 11.0975 22.3214 10.6151 22.3348 10.1028L22.3722 9.02895L24.8058 8.53257L24.8215 13.4298L21.6822 14.0695C21.7316 13.988 21.7758 13.9034 21.8145 13.8162V13.8205Z" fill="#FC430B"/>
<path d="M29.0548 5.71202L29.0749 14.5933L31.4725 14.1056L31.4539 5.22287L29.0548 5.71202Z" fill="#FC430B"/>
<path d="M39.4647 12.4761L41.8637 11.9884L38.089 3.8712L35.7274 4.35312L32.0044 13.9971L34.5472 13.479L35.1926 11.6078L38.7862 10.8755L39.4647 12.4761ZM35.8711 9.62808L36.942 6.52534L38.0661 9.18091L35.8711 9.62808Z" fill="#FC430B"/>
<path d="M11.1832 21.5239L8.99113 21.9682L4.7234 29.0072L1.97503 29.563L1.96928 23.3879L0.030186 23.7815L0.0431229 38L1.98222 37.6078L1.9779 31.3314L4.89014 30.741L9.33468 36.1201L11.4103 35.7004L6.28301 29.4486L11.1832 21.5239Z" fill="#FC430B"/>
<path d="M15.0743 20.7366L14.8472 26.7757C14.8295 28.0718 14.7166 29.3647 14.5094 30.644C14.3302 31.6281 14.0734 32.3637 13.739 32.8509C13.5312 33.1635 13.2447 33.4149 12.9088 33.5794C12.5729 33.7439 12.1996 33.8157 11.8272 33.7873L11.6935 35.6426L12.3648 35.6179C13.1744 35.5901 13.9522 35.2934 14.577 34.7742C15.063 34.3205 15.4316 33.7542 15.6507 33.1245C15.9656 32.2422 16.1788 31.3264 16.2861 30.3951C16.4528 29.0576 16.5511 27.7124 16.5808 26.3647L16.7245 22.1679L22.7416 20.9494V33.4023L24.6433 33.0174L24.6289 18.7988L15.0743 20.7366Z" fill="#FC430B"/>
<path d="M43.5254 17.7323C42.8632 16.9615 41.9989 16.3938 41.0315 16.0941C39.975 15.7777 38.8558 15.7383 37.78 15.9798C36.7051 16.1925 35.6856 16.6271 34.7858 17.2562C33.8993 17.8739 33.1345 18.6522 32.5305 19.5514C31.9265 20.445 31.4963 21.4458 31.2627 22.5007C31.1823 22.859 31.128 23.2228 31.1002 23.589L28.7213 24.0709L28.7141 17.9769L26.7937 18.3661L26.8081 32.5847L28.7285 32.1968V25.8987L31.1807 25.4038C31.198 25.5138 31.2167 25.6252 31.2383 25.7366C31.473 26.9088 31.9268 27.8838 32.5995 28.6614C33.2622 29.4322 34.1269 29.9999 35.0949 30.2996C36.1448 30.6161 37.2578 30.6565 38.3276 30.4168C39.4057 30.2036 40.4285 29.7685 41.3319 29.1389C42.2243 28.5203 42.9957 27.7412 43.6073 26.8408C44.2147 25.9491 44.6452 24.9476 44.8751 23.8915C45.1068 22.8267 45.1137 21.7247 44.8953 20.657C44.7021 19.5778 44.2296 18.5689 43.5254 17.7323ZM42.9145 23.6165C42.742 24.4175 42.4258 25.1801 41.9816 25.8669C41.543 26.5516 40.9809 27.1475 40.3243 27.6237C39.666 28.1028 38.9121 28.4322 38.1149 28.589C37.3642 28.7608 36.5817 28.7299 35.8466 28.4993C35.1744 28.2807 34.5784 27.8729 34.1289 27.3242C33.6442 26.7129 33.3195 25.9889 33.1845 25.2185C33.0205 24.4125 33.0264 23.5808 33.2018 22.7771C33.3737 21.9781 33.6862 21.2164 34.1246 20.5282C34.5611 19.8418 35.1236 19.2456 35.782 18.7714C36.4438 18.2926 37.2002 17.9628 37.9999 17.8046C38.7474 17.6331 39.5267 17.6646 40.2581 17.8958C40.9324 18.1197 41.5302 18.5305 41.9831 19.081C42.4715 19.6867 42.7994 20.4072 42.9361 21.1751C43.0979 21.9815 43.0906 22.8131 42.9145 23.6165Z" fill="#FC430B"/>
<path d="M46.2766 0.0477682L46.0409 0V31.8842L66.5861 36.0449V33.1592L70 33.4617V0.0477682H46.2766ZM50.2152 25.8553L51.1812 22.8336C49.9594 22.9392 48.9718 22.7294 48.2229 22.1925C47.2809 21.5171 46.809 20.4004 46.807 18.8423V14.3097L48.7073 13.9262V18.3951C48.715 19.437 49.0135 20.1722 49.6028 20.6006C50.1309 20.9865 50.8525 21.111 51.7676 20.974L53.0858 16.8553C53.0656 16.8292 53.0412 16.8061 53.0211 16.78C52.561 16.1852 52.2158 15.5088 52.0034 14.7858C51.7854 14.0601 51.7011 13.3004 51.7547 12.5441C51.8071 11.7855 52.0162 11.0461 52.3685 10.3734C52.6875 9.7274 53.1643 9.17364 53.7542 8.76412C54.2969 8.3929 54.9326 8.18324 55.5883 8.15919C56.2972 8.14619 56.9968 8.32192 57.6165 8.6686C58.2875 9.0177 58.8758 9.50835 59.3414 10.1071C59.8036 10.7006 60.1491 11.3774 60.3591 12.1013C60.5722 12.827 60.654 13.5853 60.6006 14.3401C60.5481 15.0989 60.3385 15.8384 59.9854 16.5109C59.7284 17.0224 59.3777 17.4805 58.9519 17.8611L61.3841 28.1201L50.2152 25.8553ZM69.0714 32.4399L66.5861 32.2214V4.1838L50.8663 0.979742H69.0714V32.4399Z" fill="#FC430B"/>
<path d="M54.1969 22.0405C54.8238 21.7649 55.4309 21.4458 56.0138 21.0854V26.6686L57.9342 26.2807L57.9213 12.0608L56.0009 12.4501V19.1679C55.4318 19.5726 54.8275 19.9248 54.1955 20.22C53.5247 20.534 52.8199 20.7685 52.0954 20.919C51.9832 20.9421 51.874 20.9595 51.7662 20.974L51.1711 22.8336C51.5056 22.8045 51.8382 22.7562 52.1672 22.6889C52.864 22.5433 53.5442 22.326 54.1969 22.0405Z" fill="#FC430B"/>
</svg>
